<?xml version="1.0" encoding="UTF-8" standalone="no"?>
<svg
   version="1.0"
   width="166pt"
   height="166pt"
   viewBox="0 0 166 166"
   preserveAspectRatio="xMidYMid"
   id="svg1"
   xmlns="http://www.w3.org/2000/svg"
   xmlns:svg="http://www.w3.org/2000/svg">
  <defs
     id="defs1" />
  <g
     transform="matrix(0.11116041,0,0,-0.11116041,-9.4374548,176.22676)"
     fill="#000000"
     stroke="none"
     id="g1"
     style="fill:#0546ae;fill-opacity:1;stroke:none;stroke-width:25.866;stroke-dasharray:none;stroke-opacity:1">
    <path
       d="M 680,1576 C 476,1532 283,1419 122,1248 l -33,-35 106,29 c 58,17 109,28 111,25 3,-3 -13,-30 -35,-61 -43,-62 -85,-158 -95,-221 -7,-40 -6,-39 23,18 128,248 376,429 607,444 132,9 229,-22 305,-98 43,-43 47,-61 7,-36 -50,33 -147,57 -225,57 -177,0 -319,-64 -458,-204 C 335,1064 274,969 217,825 158,677 119,490 121,367 c 0,-44 2,-49 12,-34 89,138 118,178 170,234 54,57 63,63 72,48 C 431,520 507,463 709,360 860.61509,271.26361 875.95415,221.64852 956.81184,147.64852 975.81184,122.64852 1056,94 1060,92 c 11,-4 59,110 70,168 16,85 12,129 -25,276 -39,155 -42,188 -20,261 59,199 349,269 434,105 l 19,-37 18,40 c 11,25 17,68 18,116 1,65 -3,84 -29,134 -36,70 -111,136 -185,162 -41,14 -56,26 -75,60 -49,82 -157,156 -276,189 -78,21 -250,26 -329,10 z m 334,-307 c 14,-11 26,-29 26,-40 0,-25 -35,-59 -60,-59 -11,0 -29,9 -40,20 -11,11 -20,29 -20,40 0,23 33,60 54,60 7,0 25,-9 40,-21 z m 341,-45 c 69,-33 125.5073,-103.0849 144.5073,-183.0849 4,-18 1.7719,-28.6077 -0.099,-27.9009 -2.1593,0.8158 -35.0208,21.8833 -51.6755,27.6191 C 1411.4511,1054.4921 1396,1057 1361,1066 c -168,47 -384,-55 -529,-251 -38,-51 -44,-55 -38,-30 20,86 121,200 241,272 33,20 95,69 137,110 86,80 115,90 183,57 z M 544,996 c -12,-35 -15,-71 -12,-134 8,-145 33,-181 293,-418 55,-50 119,-119 143,-152 24,-34 42,-62 40,-62 -2,0 -28,23 -58,51 -73,68 -146,123 -253,189 -153,95 -216,170 -237,282 -17,88 16,214 73,275 11,13 22,21 24,20 1,-2 -4,-25 -13,-51 z"
       id="path1"
       style="fill:#0546ae;fill-opacity:1;stroke:none;stroke-width:23.584;stroke-dasharray:none;stroke-opacity:1" />
  </g>
</svg>
